<?xml version="1.0" encoding="utf-8"?>
<!-- Generator: Adobe Illustrator 22.1.0, SVG Export Plug-In . SVG Version: 6.00 Build 0)  -->
<svg version="1.1" id="Calque_1" xmlns="http://www.w3.org/2000/svg" xmlns:xlink="http://www.w3.org/1999/xlink" x="0px" y="0px"
	 viewBox="0 0 512 512" style="enable-background:new 0 0 512 512;" xml:space="preserve">
<style type="text/css">
	.st0{fill:#537371;}
</style>
<g>
	<g>
		<g>
			<path class="st0" d="M197.5,109c0-4.1-3.4-7.5-7.5-7.5h-54c-4.1,0-7.5,3.4-7.5,7.5v50c0,4.1,3.4,7.5,7.5,7.5h54
				c4.1,0,7.5-3.4,7.5-7.5V109z M182.5,151.5h-39v-35h39V151.5z"/>
			<path class="st0" d="M383.5,109c0-4.1-3.4-7.5-7.5-7.5h-54c-4.1,0-7.5,3.4-7.5,7.5v50c0,4.1,3.4,7.5,7.5,7.5h54
				c4.1,0,7.5-3.4,7.5-7.5V109z M368.5,151.5h-39v-35h39V151.5z"/>
			<path class="st0" d="M290.5,109c0-4.1-3.4-7.5-7.5-7.5h-54c-4.1,0-7.5,3.4-7.5,7.5v50c0,4.1,3.4,7.5,7.5,7.5h54
				c4.1,0,7.5-3.4,7.5-7.5V109z M275.5,151.5h-39v-35h39V151.5z"/>
			<path class="st0" d="M197.5,195c0-4.1-3.4-7.5-7.5-7.5h-54c-4.1,0-7.5,3.4-7.5,7.5v50c0,4.1,3.4,7.5,7.5,7.5h54
				c4.1,0,7.5-3.4,7.5-7.5V195z M182.5,237.5h-39v-35h39V237.5z"/>
			<path class="st0" d="M383.5,195c0-4.1-3.4-7.5-7.5-7.5h-54c-4.1,0-7.5,3.4-7.5,7.5v50c0,4.1,3.4,7.5,7.5,7.5h54
				c4.1,0,7.5-3.4,7.5-7.5V195z M368.5,237.5h-39v-35h39V237.5z"/>
			<path class="st0" d="M290.5,195c0-4.1-3.4-7.5-7.5-7.5h-54c-4.1,0-7.5,3.4-7.5,7.5v50c0,4.1,3.4,7.5,7.5,7.5h54
				c4.1,0,7.5-3.4,7.5-7.5V195z M275.5,237.5h-39v-35h39V237.5z"/>
			<path class="st0" d="M190,274.5h-54c-4.1,0-7.5,3.4-7.5,7.5v50c0,4.1,3.4,7.5,7.5,7.5h54c4.1,0,7.5-3.4,7.5-7.5v-50
				C197.5,277.9,194.1,274.5,190,274.5z M182.5,324.5h-39v-35h39V324.5z"/>
			<path class="st0" d="M376,274.5h-54c-4.1,0-7.5,3.4-7.5,7.5v50c0,4.1,3.4,7.5,7.5,7.5h54c4.1,0,7.5-3.4,7.5-7.5v-50
				C383.5,277.9,380.1,274.5,376,274.5z M368.5,324.5h-39v-35h39V324.5z"/>
			<path class="st0" d="M283,274.5h-54c-4.1,0-7.5,3.4-7.5,7.5v50c0,4.1,3.4,7.5,7.5,7.5h54c4.1,0,7.5-3.4,7.5-7.5v-50
				C290.5,277.9,287.1,274.5,283,274.5z M275.5,324.5h-39v-35h39V324.5z"/>
			<path class="st0" d="M488.5,437.5h-68V69c0-4.1-3.4-7.5-7.5-7.5h-28.6c-4.1,0-7.5,3.4-7.5,7.5s3.4,7.5,7.5,7.5h21.1v361h-51V365
				c0-4.1-3.4-7.5-7.5-7.5h-50.8c-4.1,0-7.5,3.4-7.5,7.5s3.4,7.5,7.5,7.5h9.3v65h-99v-65h57.4c4.1,0,7.5-3.4,7.5-7.5
				s-3.4-7.5-7.5-7.5H165c-4.1,0-7.5,3.4-7.5,7.5v72.5h-51V390c0-4.1-3.4-7.5-7.5-7.5s-7.5,3.4-7.5,7.5v47.5h-68
				C10.5,437.5,0,448,0,461s10.5,23.5,23.5,23.5h465c13,0,23.5-10.5,23.5-23.5S501.5,437.5,488.5,437.5z M320.5,372.5h19v65h-19
				V372.5z M172.5,372.5h19v65h-19V372.5z M488.5,469.5h-465c-4.7,0-8.5-3.8-8.5-8.5s3.8-8.5,8.5-8.5h465c4.7,0,8.5,3.8,8.5,8.5
				S493.2,469.5,488.5,469.5z"/>
			<path class="st0" d="M99,365.7c4.1,0,7.5-3.4,7.5-7.5V76.5h244.7c4.1,0,7.5-3.4,7.5-7.5s-3.4-7.5-7.5-7.5H199.5V39
				c0-4.1-3.4-7.5-7.5-7.5h-60c-4.1,0-7.5,3.4-7.5,7.5v22.5H99c-4.1,0-7.5,3.4-7.5,7.5v289.2C91.5,362.3,94.9,365.7,99,365.7
				L99,365.7z M139.5,46.5h45v15h-45V46.5z"/>
		</g>
	</g>
</g>
</svg>
