<?xml version="1.0" encoding="utf-8"?>
<!-- Generator: Adobe Illustrator 22.1.0, SVG Export Plug-In . SVG Version: 6.00 Build 0)  -->
<svg version="1.1" id="Calque_1" xmlns="http://www.w3.org/2000/svg" xmlns:xlink="http://www.w3.org/1999/xlink" x="0px" y="0px"
	 viewBox="0 0 512 512" style="enable-background:new 0 0 512 512;" xml:space="preserve">
<style type="text/css">
	.st0{fill:#537371;}
</style>
<g id="XMLID_1300_">
	<g id="XMLID_80_">
		<path id="XMLID_89_" class="st0" d="M470.9,193.2L438,160.2V95c0-22.1-17.9-40-40-40h-65.2l-51-51C280,2.1,277.4,1,274.8,1
			l-37.3,0c0,0,0,0,0,0c-2.7,0-5.2,1.1-7.1,2.9l-51.1,51H114c-22.1,0-40,17.9-40,40v65.4l-32.9,32.8c-9.7,9.7-15.1,22.7-15.1,36.4
			v231.9c0,13.9,5.5,26.5,14.5,35.8c0.2,0.2,0.4,0.5,0.6,0.7c0.2,0.2,0.4,0.4,0.7,0.6c9.3,9,21.9,14.5,35.8,14.5H211
			c5.5,0,10-4.5,10-10c0-5.5-4.5-10-10-10H77.5c-5,0-9.8-1.2-14.1-3.3l117.9-117.9l38.4,38.4c9.7,9.7,22.7,15.1,36.4,15.1h0
			c13.8,0,26.7-5.4,36.4-15.1l38.2-38.2l117.8,117.8c-4.2,2.1-9,3.3-14.1,3.3H301c-5.5,0-10,4.5-10,10c0,5.5,4.5,10,10,10h133.5
			c13.9,0,26.5-5.5,35.8-14.5c0.2-0.2,0.5-0.4,0.7-0.6c0.2-0.2,0.4-0.4,0.6-0.7c9-9.3,14.5-21.9,14.5-35.7V229.6
			C486,215.8,480.7,202.9,470.9,193.2L470.9,193.2z M438,188.5l18.8,18.8c1.7,1.7,3.2,3.6,4.5,5.7L438,236.3V188.5z M241.6,21l29,0
			L304.5,55h-96.9L241.6,21z M55.2,207.3L74,188.6v47.7L50.7,213C52,211,53.5,209.1,55.2,207.3z M49.3,475.5
			c-2.1-4.2-3.3-9-3.3-14.1V236.5l121.2,121.1L49.3,475.5z M278.4,396c-6,6-13.9,9.2-22.3,9.2c0,0,0,0,0,0c-8.4,0-16.3-3.3-22.3-9.2
			L94,256.2V95c0-11,9-20,20-20h284c11,0,20,9,20,20v68.1c-0.1,0.8-0.1,1.6,0,2.4v90.8L278.4,396z M466,461.5c0,5-1.2,9.8-3.3,14.1
			L344.9,357.7L466,236.6V461.5z"/>
		<path id="XMLID_135_" class="st0" d="M256,493c-2.6,0-5.2,1.1-7.1,2.9c-1.9,1.9-2.9,4.4-2.9,7.1c0,2.6,1.1,5.2,2.9,7.1
			c1.9,1.9,4.4,2.9,7.1,2.9c2.6,0,5.2-1.1,7.1-2.9c1.9-1.9,2.9-4.4,2.9-7.1c0-2.6-1.1-5.2-2.9-7.1C261.2,494.1,258.6,493,256,493
			L256,493z"/>
		<path id="XMLID_136_" class="st0" d="M256,116.9c-52.1,0-94.4,42.4-94.4,94.4c0,52.8,42.9,95.7,95.7,95.7h60.8c5.5,0,10-4.5,10-10
			c0-5.5-4.5-10-10-10h-60.8c-41.8,0-75.7-34-75.7-75.7c0-41,33.4-74.4,74.4-74.4s74.4,33.4,74.4,74.4v20.5
			c0,7.9-6.4,14.3-14.3,14.3c-7.9,0-14.3-6.4-14.3-14.3v-23.1c0-27.4-22.3-49.7-49.7-49.7c-28.8,0-52.2,23.4-52.2,52.2
			c0,28.8,23.4,52.2,52.2,52.2h15.9c5.5,0,10-4.5,10-10s-4.5-10-10-10h-15.9c-17.8,0-32.2-14.5-32.2-32.2
			c0-17.8,14.5-32.2,32.2-32.2c16.4,0,29.7,13.3,29.7,29.7v23.1c0,18.9,15.4,34.3,34.3,34.3c18.9,0,34.3-15.4,34.3-34.3v-20.5
			C350.4,159.3,308.1,116.9,256,116.9L256,116.9z"/>
	</g>
</g>
</svg>
